<svg xmlns="http://www.w3.org/2000/svg" xmlns:xlink="http://www.w3.org/1999/xlink" width="2000" zoomAndPan="magnify" viewBox="0 0 1500 1499.999933" height="2000" preserveAspectRatio="xMidYMid meet" version="1.0"><defs><g/><clipPath id="f70d025984"><rect x="0" width="715" y="0" height="1500"/></clipPath><clipPath id="9db6cac256"><path d="M 897 147 L 1149 147 L 1149 321 L 897 321 Z M 897 147 " clip-rule="nonzero"/></clipPath><clipPath id="e50c5fed15"><path d="M 816.886719 31.167969 L 1162.703125 170.289062 L 1078.726562 379.03125 L 732.910156 239.910156 Z M 816.886719 31.167969 " clip-rule="nonzero"/></clipPath><clipPath id="ee2fceb56c"><path d="M 816.886719 31.167969 L 1162.703125 170.289062 L 1078.726562 379.03125 L 732.910156 239.910156 Z M 816.886719 31.167969 " clip-rule="nonzero"/></clipPath><clipPath id="c4d739bfa2"><path d="M 816.886719 31.167969 L 1162.703125 170.289062 L 1078.726562 379.03125 L 732.910156 239.910156 Z M 816.886719 31.167969 " clip-rule="nonzero"/></clipPath><clipPath id="3ebabfba22"><path d="M 779 91 L 903 91 L 903 286 L 779 286 Z M 779 91 " clip-rule="nonzero"/></clipPath><clipPath id="64459565b2"><path d="M 816.886719 31.167969 L 1162.703125 170.289062 L 1078.726562 379.03125 L 732.910156 239.910156 Z M 816.886719 31.167969 " clip-rule="nonzero"/></clipPath><clipPath id="ed2057ccb2"><path d="M 816.886719 31.167969 L 1162.703125 170.289062 L 1078.726562 379.03125 L 732.910156 239.910156 Z M 816.886719 31.167969 " clip-rule="nonzero"/></clipPath><clipPath id="a4d1145e31"><path d="M 816.886719 31.167969 L 1162.703125 170.289062 L 1078.726562 379.03125 L 732.910156 239.910156 Z M 816.886719 31.167969 " clip-rule="nonzero"/></clipPath><clipPath id="541871233e"><rect x="0" width="476" y="0" height="1151"/></clipPath></defs><g transform="matrix(1, 0, 0, 1, 328, 0.000000000000112861)"><g clip-path="url(#f70d025984)"><g fill="#222222" fill-opacity="1"><g transform="translate(0.0910793, 1049.524134)"><g><path d="M 70.234375 0 L 70.234375 -805.90625 L 416.765625 -805.90625 C 470.492188 -805.90625 519.804688 -793.625 564.703125 -769.0625 C 609.609375 -744.5 645.492188 -710.535156 672.359375 -667.171875 C 699.222656 -623.804688 712.65625 -573.726562 712.65625 -516.9375 C 712.65625 -460.132812 699.222656 -409.664062 672.359375 -365.53125 C 645.492188 -321.40625 609.800781 -287.0625 565.28125 -262.5 C 520.769531 -237.9375 471.265625 -225.65625 416.765625 -225.65625 L 263.640625 -225.65625 L 263.640625 0 Z M 263.640625 -387.984375 L 394.890625 -387.984375 C 417.921875 -387.984375 438.644531 -392.972656 457.0625 -402.953125 C 475.488281 -412.929688 490.457031 -427.515625 501.96875 -446.703125 C 513.476562 -465.890625 519.234375 -488.914062 519.234375 -515.78125 C 519.234375 -542.644531 513.476562 -565.671875 501.96875 -584.859375 C 490.457031 -604.046875 475.296875 -618.816406 456.484375 -629.171875 C 437.679688 -639.535156 417.148438 -644.71875 394.890625 -644.71875 L 263.640625 -644.71875 Z M 263.640625 -387.984375 "/></g></g></g></g></g><g clip-path="url(#9db6cac256)"><g clip-path="url(#e50c5fed15)"><g clip-path="url(#ee2fceb56c)"><g clip-path="url(#c4d739bfa2)"><path fill="#39b54a" d="M 897.925781 292.710938 C 897.34375 271.4375 899.835938 231.480469 926.464844 198.453125 C 970.148438 144.269531 1061.886719 129.722656 1148.535156 171.25 C 1130.035156 251.347656 1072.527344 310.226562 1005.003906 319.652344 C 959.523438 326.003906 922.242188 308.132812 905.132812 298.3125 C 929.351562 291.714844 957.453125 282.023438 987.484375 267.523438 C 1033.835938 245.144531 1069.390625 218.738281 1094.839844 196.492188 C 1062.988281 216.738281 1026.109375 237.613281 984.179688 257.234375 C 953.929688 271.390625 924.980469 283.054688 897.925781 292.710938 Z M 897.925781 292.710938 " fill-opacity="1" fill-rule="nonzero"/></g></g></g></g><g clip-path="url(#3ebabfba22)"><g clip-path="url(#64459565b2)"><g clip-path="url(#ed2057ccb2)"><g clip-path="url(#a4d1145e31)"><path fill="#39b54a" d="M 873.417969 285.136719 C 857.847656 283.746094 828.910156 278.523438 807.082031 256.285156 C 771.269531 219.800781 768.46875 151.648438 806.136719 91.992188 C 863 112.316406 901.058594 159.285156 902.1875 209.335938 C 902.949219 243.050781 886.742188 268.71875 878.117188 280.359375 C 875.363281 262.132812 870.6875 240.808594 862.664062 217.667969 C 850.285156 181.953125 834.046875 153.769531 819.984375 133.308594 C 832.042969 158.265625 844.132812 186.945312 854.878906 219.199219 C 862.632812 242.472656 868.679688 264.582031 873.417969 285.136719 Z M 873.417969 285.136719 " fill-opacity="1" fill-rule="nonzero"/></g></g></g></g><g transform="matrix(1, 0, 0, 1, 663, 349)"><g clip-path="url(#541871233e)"><g fill="#222222" fill-opacity="1"><g transform="translate(0.782629, 910.367666)"><g><path d="M 209.953125 9.546875 C 173.898438 9.546875 142.085938 0.269531 114.515625 -18.28125 C 86.953125 -36.84375 65.484375 -61.894531 50.109375 -93.4375 C 34.734375 -124.988281 27.046875 -160.644531 27.046875 -200.40625 C 27.046875 -241.757812 36.054688 -278.738281 54.078125 -311.34375 C 72.109375 -343.957031 97.691406 -369.804688 130.828125 -388.890625 C 163.960938 -407.972656 203.0625 -417.515625 248.125 -417.515625 C 293.71875 -417.515625 332.550781 -408.101562 364.625 -389.28125 C 396.707031 -370.46875 421.363281 -344.753906 438.59375 -312.140625 C 455.820312 -279.535156 464.4375 -243.085938 464.4375 -202.796875 L 464.4375 0 L 343.5625 0 L 343.5625 -65.21875 L 340.375 -65.21875 C 332.957031 -50.894531 323.414062 -38.035156 311.75 -26.640625 C 300.082031 -15.242188 285.898438 -6.363281 269.203125 0 C 252.503906 6.363281 232.753906 9.546875 209.953125 9.546875 Z M 246.53125 -97.03125 C 265.09375 -97.03125 281.394531 -101.664062 295.4375 -110.9375 C 309.488281 -120.21875 320.226562 -133.078125 327.65625 -149.515625 C 335.082031 -165.953125 338.796875 -184.242188 338.796875 -204.390625 C 338.796875 -224.003906 335.082031 -241.765625 327.65625 -257.671875 C 320.226562 -273.578125 309.488281 -286.164062 295.4375 -295.4375 C 281.394531 -304.71875 265.09375 -309.359375 246.53125 -309.359375 C 227.445312 -309.359375 210.75 -304.71875 196.4375 -295.4375 C 182.125 -286.164062 171.253906 -273.578125 163.828125 -257.671875 C 156.398438 -241.765625 152.6875 -224.003906 152.6875 -204.390625 C 152.6875 -184.242188 156.398438 -165.953125 163.828125 -149.515625 C 171.253906 -133.078125 182.125 -120.21875 196.4375 -110.9375 C 210.75 -101.664062 227.445312 -97.03125 246.53125 -97.03125 Z M 246.53125 -97.03125 "/></g></g></g></g></g></svg>