<svg xmlns="http://www.w3.org/2000/svg" xmlns:xlink="http://www.w3.org/1999/xlink" width="2000" zoomAndPan="magnify" viewBox="0 0 1500 1499.999933" height="2000" preserveAspectRatio="xMidYMid meet" version="1.0"><defs><g/><clipPath id="72254b62b2"><rect x="0" width="226" y="0" height="575"/></clipPath><clipPath id="a8859616d2"><rect x="0" width="218" y="0" height="577"/></clipPath><clipPath id="fcbcd3fda9"><rect x="0" width="212" y="0" height="577"/></clipPath><clipPath id="251e353a66"><rect x="0" width="232" y="0" height="578"/></clipPath><clipPath id="4b4654a821"><rect x="0" width="217" y="0" height="578"/></clipPath><clipPath id="f624ef1b38"><rect x="0" width="364" y="0" height="90"/></clipPath><clipPath id="7ef69531bb"><rect x="0" width="87" y="0" height="578"/></clipPath><clipPath id="0be6fae5d7"><path d="M 822 731 L 949 731 L 949 819 L 822 819 Z M 822 731 " clip-rule="nonzero"/></clipPath><clipPath id="582618210c"><path d="M 781.851562 672.601562 L 955.804688 742.582031 L 913.535156 847.648438 L 739.582031 777.667969 Z M 781.851562 672.601562 " clip-rule="nonzero"/></clipPath><clipPath id="34250c29c3"><path d="M 781.851562 672.601562 L 955.804688 742.582031 L 913.535156 847.648438 L 739.582031 777.667969 Z M 781.851562 672.601562 " clip-rule="nonzero"/></clipPath><clipPath id="0f7c6beda1"><path d="M 781.851562 672.601562 L 955.804688 742.582031 L 913.535156 847.648438 L 739.582031 777.667969 Z M 781.851562 672.601562 " clip-rule="nonzero"/></clipPath><clipPath id="421c6402e0"><path d="M 762 703 L 825 703 L 825 801 L 762 801 Z M 762 703 " clip-rule="nonzero"/></clipPath><clipPath id="8c73557b32"><path d="M 781.851562 672.601562 L 955.804688 742.582031 L 913.535156 847.648438 L 739.582031 777.667969 Z M 781.851562 672.601562 " clip-rule="nonzero"/></clipPath><clipPath id="e561c56663"><path d="M 781.851562 672.601562 L 955.804688 742.582031 L 913.535156 847.648438 L 739.582031 777.667969 Z M 781.851562 672.601562 " clip-rule="nonzero"/></clipPath><clipPath id="fa17a82758"><path d="M 781.851562 672.601562 L 955.804688 742.582031 L 913.535156 847.648438 L 739.582031 777.667969 Z M 781.851562 672.601562 " clip-rule="nonzero"/></clipPath></defs><g transform="matrix(1, 0, 0, 1, 71, 535)"><g clip-path="url(#72254b62b2)"><g fill="#222222" fill-opacity="1"><g transform="translate(0.700562, 411.077562)"><g><path d="M 22.09375 0 L 22.09375 -253.59375 L 131.140625 -253.59375 C 148.046875 -253.59375 163.5625 -249.726562 177.6875 -242 C 191.820312 -234.269531 203.113281 -223.582031 211.5625 -209.9375 C 220.019531 -196.289062 224.25 -180.535156 224.25 -162.671875 C 224.25 -144.796875 220.019531 -128.910156 211.5625 -115.015625 C 203.113281 -101.128906 191.882812 -90.320312 177.875 -82.59375 C 163.875 -74.863281 148.296875 -71 131.140625 -71 L 82.96875 -71 L 82.96875 0 Z M 82.96875 -122.09375 L 124.265625 -122.09375 C 131.503906 -122.09375 138.019531 -123.660156 143.8125 -126.796875 C 149.613281 -129.941406 154.328125 -134.53125 157.953125 -140.5625 C 161.578125 -146.601562 163.390625 -153.847656 163.390625 -162.296875 C 163.390625 -170.753906 161.578125 -178 157.953125 -184.03125 C 154.328125 -190.070312 149.554688 -194.722656 143.640625 -197.984375 C 137.722656 -201.242188 131.265625 -202.875 124.265625 -202.875 L 82.96875 -202.875 Z M 82.96875 -122.09375 "/></g></g></g></g></g><g transform="matrix(1, 0, 0, 1, 217, 517)"><g clip-path="url(#a8859616d2)"><g fill="#222222" fill-opacity="1"><g transform="translate(0.626774, 415.440065)"><g><path d="M 95.640625 4.34375 C 79.222656 4.34375 64.734375 0.117188 52.171875 -8.328125 C 39.609375 -16.785156 29.820312 -28.195312 22.8125 -42.5625 C 15.8125 -56.9375 12.3125 -73.179688 12.3125 -91.296875 C 12.3125 -110.140625 16.414062 -126.988281 24.625 -141.84375 C 32.84375 -156.695312 44.5 -168.46875 59.59375 -177.15625 C 74.6875 -185.851562 92.5 -190.203125 113.03125 -190.203125 C 133.800781 -190.203125 151.492188 -185.914062 166.109375 -177.34375 C 180.722656 -168.769531 191.953125 -157.054688 199.796875 -142.203125 C 207.648438 -127.347656 211.578125 -110.742188 211.578125 -92.390625 L 211.578125 0 L 156.515625 0 L 156.515625 -29.703125 L 155.0625 -29.703125 C 151.675781 -23.179688 147.328125 -17.320312 142.015625 -12.125 C 136.703125 -6.9375 130.238281 -2.894531 122.625 0 C 115.019531 2.894531 106.023438 4.34375 95.640625 4.34375 Z M 112.3125 -44.203125 C 120.769531 -44.203125 128.195312 -46.3125 134.59375 -50.53125 C 140.988281 -54.757812 145.878906 -60.617188 149.265625 -68.109375 C 152.648438 -75.597656 154.34375 -83.929688 154.34375 -93.109375 C 154.34375 -102.046875 152.648438 -110.132812 149.265625 -117.375 C 145.878906 -124.625 140.988281 -130.363281 134.59375 -134.59375 C 128.195312 -138.820312 120.769531 -140.9375 112.3125 -140.9375 C 103.613281 -140.9375 96.003906 -138.820312 89.484375 -134.59375 C 82.960938 -130.363281 78.007812 -124.625 74.625 -117.375 C 71.25 -110.132812 69.5625 -102.046875 69.5625 -93.109375 C 69.5625 -83.929688 71.25 -75.597656 74.625 -68.109375 C 78.007812 -60.617188 82.960938 -54.757812 89.484375 -50.53125 C 96.003906 -46.3125 103.613281 -44.203125 112.3125 -44.203125 Z M 112.3125 -44.203125 "/></g></g></g></g></g><g transform="matrix(1, 0, 0, 1, 383, 516)"><g clip-path="url(#fcbcd3fda9)"><g fill="#222222" fill-opacity="1"><g transform="translate(1.427174, 415.641316)"><g><path d="M 21.015625 0 L 21.015625 -106.875 C 21.015625 -122.332031 24.753906 -136.34375 32.234375 -148.90625 C 39.722656 -161.46875 50.410156 -171.488281 64.296875 -178.96875 C 78.191406 -186.457031 94.679688 -190.203125 113.765625 -190.203125 C 133.085938 -190.203125 149.570312 -186.457031 163.21875 -178.96875 C 176.863281 -171.488281 187.304688 -161.46875 194.546875 -148.90625 C 201.796875 -136.34375 205.421875 -122.332031 205.421875 -106.875 L 205.421875 0 L 149.265625 0 L 149.265625 -105.421875 C 149.265625 -111.941406 147.691406 -117.921875 144.546875 -123.359375 C 141.410156 -128.796875 137.125 -133.144531 131.6875 -136.40625 C 126.257812 -139.664062 120.164062 -141.296875 113.40625 -141.296875 C 106.394531 -141.296875 100.171875 -139.664062 94.734375 -136.40625 C 89.304688 -133.144531 85.019531 -128.796875 81.875 -123.359375 C 78.738281 -117.921875 77.171875 -111.941406 77.171875 -105.421875 L 77.171875 0 Z M 21.015625 0 "/></g></g></g></g></g><g transform="matrix(1, 0, 0, 1, 540, 471)"><g clip-path="url(#251e353a66)"><g fill="#f6f4f0" fill-opacity="1"><g transform="translate(2.665065, 415.636045)"><g><path d="M 111.953125 17.933594 C 94.796875 17.933594 79.210938 15.210938 65.1875 9.765625 C 50.820312 4.1875 38.703125 -3.890625 28.835938 -14.460938 C 19.144531 -24.839844 11.691406 -37.039062 6.46875 -51.054688 C 1.3125 -64.902344 -1.269531 -79.886719 -1.269531 -96.011719 C -1.269531 -117.152344 3.085938 -135.738281 11.792969 -151.769531 C 20.589844 -167.96875 32.761719 -180.691406 48.308594 -189.9375 C 63.855469 -199.179688 81.566406 -203.800781 101.449219 -203.800781 C 110.226562 -203.800781 118.554688 -202.652344 126.4375 -200.359375 C 134.484375 -198.019531 141.828125 -194.5625 148.464844 -189.988281 C 155.210938 -185.34375 160.855469 -179.839844 165.402344 -173.472656 L 154.34375 -165.578125 L 154.34375 -179.164062 L 155.433594 -179.164062 L 155.433594 -165.578125 L 141.84375 -165.578125 L 141.84375 -278.074219 L 225.175781 -278.074219 L 225.175781 -96.375 C 225.175781 -73.796875 220.527344 -53.894531 211.226562 -36.664062 C 201.753906 -19.105469 188.425781 -5.578125 171.246094 3.917969 C 154.34375 13.261719 134.582031 17.933594 111.953125 17.933594 Z M 111.953125 -9.238281 C 129.90625 -9.238281 145.289062 -12.78125 158.097656 -19.863281 C 170.625 -26.789062 180.363281 -36.691406 187.316406 -49.566406 C 194.441406 -62.769531 198.003906 -78.375 198.003906 -96.375 L 198.003906 -264.488281 L 211.589844 -264.488281 L 211.589844 -250.902344 L 155.433594 -250.902344 L 155.433594 -264.488281 L 169.019531 -264.488281 L 169.019531 -151.988281 L 147.351562 -151.988281 L 143.289062 -157.679688 C 140.589844 -161.457031 137.175781 -164.769531 133.050781 -167.613281 C 128.820312 -170.527344 124.085938 -172.746094 118.847656 -174.269531 C 113.445312 -175.839844 107.644531 -176.628906 101.449219 -176.628906 C 86.546875 -176.628906 73.460938 -173.277344 62.195312 -166.578125 C 50.933594 -159.882812 42.089844 -150.621094 35.671875 -138.800781 C 29.160156 -126.816406 25.90625 -112.550781 25.90625 -96.011719 C 25.90625 -83.152344 27.914062 -71.328125 31.933594 -60.539062 C 35.890625 -49.917969 41.480469 -40.738281 48.699219 -33 C 55.742188 -25.457031 64.515625 -19.644531 75.027344 -15.5625 C 85.882812 -11.347656 98.191406 -9.238281 111.953125 -9.238281 Z M 111.953125 -57.789062 C 117.929688 -57.789062 122.980469 -59.152344 127.113281 -61.878906 C 131.351562 -64.679688 134.621094 -68.585938 136.925781 -73.601562 C 139.480469 -79.167969 140.757812 -85.554688 140.757812 -92.75 C 140.757812 -99.921875 139.492188 -106.21875 136.960938 -111.644531 C 134.660156 -116.570312 131.378906 -120.445312 127.113281 -123.261719 C 122.980469 -125.988281 117.929688 -127.351562 111.953125 -127.351562 C 106.179688 -127.351562 101.15625 -125.96875 96.878906 -123.199219 C 92.542969 -120.382812 89.230469 -116.535156 86.949219 -111.644531 C 84.417969 -106.21875 83.152344 -99.921875 83.152344 -92.75 C 83.152344 -85.554688 84.429688 -79.167969 86.984375 -73.601562 C 89.269531 -68.625 92.566406 -64.738281 96.878906 -61.945312 C 101.15625 -59.175781 106.179688 -57.789062 111.953125 -57.789062 Z M 111.953125 -30.617188 C 100.820312 -30.617188 90.871094 -33.457031 82.101562 -39.140625 C 73.371094 -44.800781 66.765625 -52.507812 62.289062 -62.265625 C 58.082031 -71.429688 55.976562 -81.59375 55.976562 -92.75 C 55.976562 -103.941406 58.09375 -114.066406 62.324219 -123.132812 C 66.804688 -132.738281 73.398438 -140.359375 82.101562 -146 C 90.871094 -151.683594 100.820312 -154.527344 111.953125 -154.527344 C 123.371094 -154.527344 133.414062 -151.664062 142.085938 -145.9375 C 150.621094 -140.300781 157.121094 -132.699219 161.585938 -123.132812 C 165.816406 -114.066406 167.929688 -103.941406 167.929688 -92.75 C 167.929688 -81.59375 165.828125 -71.429688 161.621094 -62.265625 C 157.160156 -52.546875 150.648438 -44.859375 142.085938 -39.203125 C 133.414062 -33.476562 123.371094 -30.617188 111.953125 -30.617188 Z M 111.953125 -30.617188 "/></g></g></g><g fill="#222222" fill-opacity="1"><g transform="translate(2.665065, 415.636045)"><g><path d="M 111.953125 4.34375 C 96.492188 4.34375 82.546875 1.929688 70.109375 -2.890625 C 57.671875 -7.722656 47.222656 -14.664062 38.765625 -23.71875 C 30.316406 -32.78125 23.796875 -43.472656 19.203125 -55.796875 C 14.609375 -68.117188 12.3125 -81.523438 12.3125 -96.015625 C 12.3125 -114.847656 16.113281 -131.269531 23.71875 -145.28125 C 31.332031 -159.289062 41.84375 -170.28125 55.25 -178.25 C 68.65625 -186.226562 84.054688 -190.21875 101.453125 -190.21875 C 108.929688 -190.21875 115.992188 -189.25 122.640625 -187.3125 C 129.285156 -185.382812 135.320312 -182.546875 140.75 -178.796875 C 146.1875 -175.054688 150.71875 -170.648438 154.34375 -165.578125 L 155.4375 -165.578125 L 155.4375 -264.484375 L 211.59375 -264.484375 L 211.59375 -96.375 C 211.59375 -76.082031 207.484375 -58.328125 199.265625 -43.109375 C 191.054688 -27.898438 179.523438 -16.1875 164.671875 -7.96875 C 149.816406 0.238281 132.242188 4.34375 111.953125 4.34375 Z M 111.953125 -44.203125 C 120.648438 -44.203125 128.195312 -46.316406 134.59375 -50.546875 C 141 -54.773438 145.890625 -60.570312 149.265625 -67.9375 C 152.648438 -75.300781 154.34375 -83.570312 154.34375 -92.75 C 154.34375 -101.925781 152.648438 -110.140625 149.265625 -117.390625 C 145.890625 -124.640625 141 -130.375 134.59375 -134.59375 C 128.195312 -138.820312 120.648438 -140.9375 111.953125 -140.9375 C 103.503906 -140.9375 96.015625 -138.820312 89.484375 -134.59375 C 82.960938 -130.375 78.007812 -124.640625 74.625 -117.390625 C 71.25 -110.140625 69.5625 -101.925781 69.5625 -92.75 C 69.5625 -83.570312 71.25 -75.300781 74.625 -67.9375 C 78.007812 -60.570312 82.960938 -54.773438 89.484375 -50.546875 C 96.015625 -46.316406 103.503906 -44.203125 111.953125 -44.203125 Z M 111.953125 -44.203125 "/></g></g></g></g></g><g transform="matrix(1, 0, 0, 1, 671, 568)"><g clip-path="url(#4b4654a821)"><g fill="#222222" fill-opacity="1"><g transform="translate(0.647241, 415.54471)"><g><path d="M 95.65625 4.34375 C 79.226562 4.34375 64.734375 0.117188 52.171875 -8.328125 C 39.609375 -16.785156 29.820312 -28.195312 22.8125 -42.5625 C 15.8125 -56.9375 12.3125 -73.179688 12.3125 -91.296875 C 12.3125 -110.140625 16.414062 -126.988281 24.625 -141.84375 C 32.84375 -156.695312 44.5 -168.472656 59.59375 -177.171875 C 74.695312 -185.867188 92.515625 -190.21875 113.046875 -190.21875 C 133.816406 -190.21875 151.507812 -185.925781 166.125 -177.34375 C 180.738281 -168.769531 191.96875 -157.054688 199.8125 -142.203125 C 207.664062 -127.347656 211.59375 -110.742188 211.59375 -92.390625 L 211.59375 0 L 156.515625 0 L 156.515625 -29.703125 L 155.0625 -29.703125 C 151.6875 -23.179688 147.34375 -17.320312 142.03125 -12.125 C 136.71875 -6.9375 130.253906 -2.894531 122.640625 0 C 115.035156 2.894531 106.039062 4.34375 95.65625 4.34375 Z M 112.3125 -44.203125 C 120.769531 -44.203125 128.195312 -46.316406 134.59375 -50.546875 C 141 -54.773438 145.890625 -60.628906 149.265625 -68.109375 C 152.648438 -75.597656 154.34375 -83.929688 154.34375 -93.109375 C 154.34375 -102.046875 152.648438 -110.140625 149.265625 -117.390625 C 145.890625 -124.640625 141 -130.375 134.59375 -134.59375 C 128.195312 -138.820312 120.769531 -140.9375 112.3125 -140.9375 C 103.625 -140.9375 96.015625 -138.820312 89.484375 -134.59375 C 82.960938 -130.375 78.007812 -124.640625 74.625 -117.390625 C 71.25 -110.140625 69.5625 -102.046875 69.5625 -93.109375 C 69.5625 -83.929688 71.25 -75.597656 74.625 -68.109375 C 78.007812 -60.628906 82.960938 -54.773438 89.484375 -50.546875 C 96.015625 -46.316406 103.625 -44.203125 112.3125 -44.203125 Z M 112.3125 -44.203125 "/></g></g></g></g></g><g transform="matrix(1, 0, 0, 1, 1103, 806)"><g clip-path="url(#f624ef1b38)"><g fill="#242424" fill-opacity="1"><g transform="translate(2.523393, 68.868208)"><g><path d="M 25.046875 0.75 C 21.035156 0.75 17.097656 0.0625 13.234375 -1.3125 C 9.378906 -2.695312 5.867188 -4.816406 2.703125 -7.671875 L 9.5625 -15.875 C 11.96875 -13.914062 14.4375 -12.359375 16.96875 -11.203125 C 19.5 -10.054688 22.269531 -9.484375 25.28125 -9.484375 C 27.6875 -9.484375 29.550781 -9.921875 30.875 -10.796875 C 32.207031 -11.671875 32.875 -12.882812 32.875 -14.4375 L 32.875 -14.59375 C 32.875 -15.34375 32.734375 -16.003906 32.453125 -16.578125 C 32.179688 -17.160156 31.65625 -17.703125 30.875 -18.203125 C 30.101562 -18.703125 29.023438 -19.203125 27.640625 -19.703125 C 26.265625 -20.210938 24.472656 -20.742188 22.265625 -21.296875 C 19.609375 -21.941406 17.203125 -22.664062 15.046875 -23.46875 C 12.890625 -24.269531 11.054688 -25.257812 9.546875 -26.4375 C 8.046875 -27.625 6.878906 -29.09375 6.046875 -30.84375 C 5.222656 -32.601562 4.8125 -34.785156 4.8125 -37.390625 L 4.8125 -37.546875 C 4.8125 -39.953125 5.265625 -42.117188 6.171875 -44.046875 C 7.078125 -45.984375 8.34375 -47.648438 9.96875 -49.046875 C 11.59375 -50.453125 13.535156 -51.53125 15.796875 -52.28125 C 18.054688 -53.039062 20.539062 -53.421875 23.25 -53.421875 C 27.113281 -53.421875 30.660156 -52.84375 33.890625 -51.6875 C 37.128906 -50.53125 40.101562 -48.875 42.8125 -46.71875 L 36.796875 -38 C 34.429688 -39.601562 32.117188 -40.867188 29.859375 -41.796875 C 27.609375 -42.722656 25.351562 -43.1875 23.09375 -43.1875 C 20.84375 -43.1875 19.148438 -42.742188 18.015625 -41.859375 C 16.890625 -40.984375 16.328125 -39.894531 16.328125 -38.59375 L 16.328125 -38.4375 C 16.328125 -37.59375 16.488281 -36.851562 16.8125 -36.21875 C 17.132812 -35.59375 17.722656 -35.03125 18.578125 -34.53125 C 19.429688 -34.03125 20.597656 -33.550781 22.078125 -33.09375 C 23.554688 -32.644531 25.425781 -32.117188 27.6875 -31.515625 C 30.34375 -30.816406 32.710938 -30.03125 34.796875 -29.15625 C 36.878906 -28.28125 38.632812 -27.226562 40.0625 -26 C 41.488281 -24.769531 42.566406 -23.328125 43.296875 -21.671875 C 44.023438 -20.015625 44.390625 -18.03125 44.390625 -15.71875 L 44.390625 -15.578125 C 44.390625 -12.960938 43.910156 -10.640625 42.953125 -8.609375 C 42.003906 -6.578125 40.675781 -4.867188 38.96875 -3.484375 C 37.257812 -2.109375 35.226562 -1.054688 32.875 -0.328125 C 30.519531 0.390625 27.910156 0.75 25.046875 0.75 Z M 25.046875 0.75 "/></g></g></g><g fill="#242424" fill-opacity="1"><g transform="translate(69.632523, 68.868208)"><g><path d="M 18.578125 -41.984375 L 2.5625 -41.984375 L 2.5625 -52.671875 L 46.1875 -52.671875 L 46.1875 -41.984375 L 30.171875 -41.984375 L 30.171875 0 L 18.578125 0 Z M 18.578125 -41.984375 "/></g></g></g><g fill="#242424" fill-opacity="1"><g transform="translate(137.343418, 68.868208)"><g><path d="M 31.90625 0.90625 C 27.84375 0.90625 24.101562 0.191406 20.6875 -1.234375 C 17.28125 -2.671875 14.332031 -4.601562 11.84375 -7.03125 C 9.363281 -9.46875 7.429688 -12.328125 6.046875 -15.609375 C 4.671875 -18.890625 3.984375 -22.414062 3.984375 -26.1875 L 3.984375 -26.328125 C 3.984375 -30.085938 4.6875 -33.609375 6.09375 -36.890625 C 7.5 -40.179688 9.441406 -43.066406 11.921875 -45.546875 C 14.410156 -48.035156 17.367188 -49.992188 20.796875 -51.421875 C 24.234375 -52.847656 27.984375 -53.5625 32.046875 -53.5625 C 36.109375 -53.5625 39.84375 -52.847656 43.25 -51.421875 C 46.664062 -49.992188 49.613281 -48.0625 52.09375 -45.625 C 54.582031 -43.195312 56.515625 -40.335938 57.890625 -37.046875 C 59.273438 -33.765625 59.96875 -30.242188 59.96875 -26.484375 L 59.96875 -26.328125 C 59.96875 -22.566406 59.265625 -19.039062 57.859375 -15.75 C 56.453125 -12.46875 54.503906 -9.585938 52.015625 -7.109375 C 49.535156 -4.628906 46.578125 -2.671875 43.140625 -1.234375 C 39.710938 0.191406 35.96875 0.90625 31.90625 0.90625 Z M 32.046875 -9.78125 C 34.359375 -9.78125 36.488281 -10.207031 38.4375 -11.0625 C 40.394531 -11.914062 42.0625 -13.09375 43.4375 -14.59375 C 44.820312 -16.101562 45.898438 -17.847656 46.671875 -19.828125 C 47.453125 -21.804688 47.84375 -23.925781 47.84375 -26.1875 L 47.84375 -26.328125 C 47.84375 -28.585938 47.453125 -30.71875 46.671875 -32.71875 C 45.898438 -34.726562 44.800781 -36.484375 43.375 -37.984375 C 41.945312 -39.492188 40.253906 -40.6875 38.296875 -41.5625 C 36.335938 -42.445312 34.207031 -42.890625 31.90625 -42.890625 C 29.539062 -42.890625 27.394531 -42.460938 25.46875 -41.609375 C 23.539062 -40.753906 21.882812 -39.570312 20.5 -38.0625 C 19.125 -36.5625 18.046875 -34.820312 17.265625 -32.84375 C 16.484375 -30.863281 16.09375 -28.742188 16.09375 -26.484375 L 16.09375 -26.328125 C 16.09375 -24.078125 16.484375 -21.945312 17.265625 -19.9375 C 18.046875 -17.925781 19.148438 -16.164062 20.578125 -14.65625 C 22.003906 -13.15625 23.679688 -11.96875 25.609375 -11.09375 C 27.546875 -10.21875 29.691406 -9.78125 32.046875 -9.78125 Z M 32.046875 -9.78125 "/></g></g></g><g fill="#242424" fill-opacity="1"><g transform="translate(220.249307, 68.868208)"><g><path d="M 6.3125 -52.671875 L 30.390625 -52.671875 C 37.066406 -52.671875 42.1875 -50.890625 45.75 -47.328125 C 48.75 -44.316406 50.25 -40.300781 50.25 -35.28125 L 50.25 -35.140625 C 50.25 -30.867188 49.207031 -27.390625 47.125 -24.703125 C 45.050781 -22.023438 42.332031 -20.0625 38.96875 -18.8125 L 51.84375 0 L 38.296875 0 L 27.015625 -16.859375 L 17.90625 -16.859375 L 17.90625 0 L 6.3125 0 Z M 29.640625 -27.078125 C 32.503906 -27.078125 34.695312 -27.753906 36.21875 -29.109375 C 37.75 -30.460938 38.515625 -32.269531 38.515625 -34.53125 L 38.515625 -34.6875 C 38.515625 -37.1875 37.710938 -39.0625 36.109375 -40.3125 C 34.503906 -41.570312 32.273438 -42.203125 29.421875 -42.203125 L 17.90625 -42.203125 L 17.90625 -27.078125 Z M 29.640625 -27.078125 "/></g></g></g><g fill="#242424" fill-opacity="1"><g transform="translate(293.601884, 68.868208)"><g><path d="M 6.3125 -52.671875 L 46.046875 -52.671875 L 46.046875 -42.359375 L 17.828125 -42.359375 L 17.828125 -31.671875 L 42.65625 -31.671875 L 42.65625 -21.359375 L 17.828125 -21.359375 L 17.828125 -10.3125 L 46.421875 -10.3125 L 46.421875 0 L 6.3125 0 Z M 6.3125 -52.671875 "/></g></g></g></g></g><g transform="matrix(1, 0, 0, 1, 895, 568)"><g clip-path="url(#7ef69531bb)"><g fill="#222222" fill-opacity="1"><g transform="translate(1.04687, 415.54471)"><g><path d="M 48.546875 4.34375 C 38.890625 4.34375 30.617188 0.90625 23.734375 -5.96875 C 16.847656 -12.851562 13.40625 -21.007812 13.40625 -30.4375 C 13.40625 -40.09375 16.847656 -48.363281 23.734375 -55.25 C 30.617188 -62.132812 38.890625 -65.578125 48.546875 -65.578125 C 57.972656 -65.578125 66.125 -62.132812 73 -55.25 C 79.882812 -48.363281 83.328125 -40.09375 83.328125 -30.4375 C 83.328125 -24.15625 81.753906 -18.359375 78.609375 -13.046875 C 75.472656 -7.734375 71.304688 -3.503906 66.109375 -0.359375 C 60.921875 2.773438 55.066406 4.34375 48.546875 4.34375 Z M 48.546875 4.34375 "/></g></g></g></g></g><path stroke-linecap="round" transform="matrix(0, 0.75, -0.75, 0, 1046.948967, 610.545863)" fill="none" stroke-linejoin="miter" d="M 11.00135 10.999666 L 509.657643 10.999666 " stroke="#242424" stroke-width="22" stroke-opacity="1" stroke-miterlimit="4"/><g clip-path="url(#0be6fae5d7)"><g clip-path="url(#582618210c)"><g clip-path="url(#34250c29c3)"><g clip-path="url(#0f7c6beda1)"><path fill="#39b54a" d="M 822.589844 804.222656 C 822.300781 793.515625 823.558594 773.40625 836.957031 756.78125 C 858.941406 729.507812 905.089844 722.175781 948.671875 743.0625 C 939.355469 783.378906 910.421875 813.015625 876.453125 817.769531 C 853.574219 820.972656 834.820312 811.980469 826.214844 807.039062 C 838.398438 803.714844 852.539062 798.835938 867.644531 791.535156 C 890.964844 780.269531 908.851562 766.972656 921.65625 755.773438 C 905.632812 765.96875 887.078125 776.476562 865.984375 786.355469 C 850.765625 793.484375 836.203125 799.359375 822.589844 804.222656 Z M 822.589844 804.222656 " fill-opacity="1" fill-rule="nonzero"/></g></g></g></g><g clip-path="url(#421c6402e0)"><g clip-path="url(#8c73557b32)"><g clip-path="url(#e561c56663)"><g clip-path="url(#fa17a82758)"><path fill="#39b54a" d="M 810.261719 800.414062 C 802.429688 799.714844 787.875 797.089844 776.894531 785.898438 C 758.886719 767.542969 757.484375 733.242188 776.441406 703.214844 C 805.042969 713.4375 824.183594 737.070312 824.746094 762.261719 C 825.125 779.230469 816.96875 792.148438 812.628906 798.007812 C 811.246094 788.835938 808.894531 778.105469 804.863281 766.457031 C 798.636719 748.484375 790.472656 734.300781 783.402344 724.007812 C 789.464844 736.566406 795.542969 751 800.945312 767.230469 C 804.84375 778.941406 807.882812 790.070312 810.261719 800.414062 Z M 810.261719 800.414062 " fill-opacity="1" fill-rule="nonzero"/></g></g></g></g></svg>