<svg xmlns="http://www.w3.org/2000/svg" xmlns:xlink="http://www.w3.org/1999/xlink" width="2000" zoomAndPan="magnify" viewBox="0 0 1500 1499.999933" height="2000" preserveAspectRatio="xMidYMid meet" version="1.0"><defs><clipPath id="4931b72985"><path d="M 816.359375 684.886719 L 944.414062 684.886719 L 944.414062 773.621094 L 816.359375 773.621094 Z M 816.359375 684.886719 " clip-rule="nonzero"/></clipPath><clipPath id="fdc2f5b366"><path d="M 775.878906 626.003906 L 951.277344 696.566406 L 908.65625 802.507812 L 733.257812 731.945312 Z M 775.878906 626.003906 " clip-rule="nonzero"/></clipPath><clipPath id="071e3065ff"><path d="M 775.878906 626.003906 L 951.277344 696.566406 L 908.65625 802.507812 L 733.257812 731.945312 Z M 775.878906 626.003906 " clip-rule="nonzero"/></clipPath><clipPath id="cab4d01fa8"><path d="M 775.878906 626.003906 L 951.277344 696.566406 L 908.65625 802.507812 L 733.257812 731.945312 Z M 775.878906 626.003906 " clip-rule="nonzero"/></clipPath><clipPath id="55fa0993b0"><path d="M 756 656.65625 L 819.386719 656.65625 L 819.386719 755 L 756 755 Z M 756 656.65625 " clip-rule="nonzero"/></clipPath><clipPath id="c1a8bc4bfb"><path d="M 775.878906 626.003906 L 951.277344 696.566406 L 908.65625 802.507812 L 733.257812 731.945312 Z M 775.878906 626.003906 " clip-rule="nonzero"/></clipPath><clipPath id="d897059212"><path d="M 775.878906 626.003906 L 951.277344 696.566406 L 908.65625 802.507812 L 733.257812 731.945312 Z M 775.878906 626.003906 " clip-rule="nonzero"/></clipPath><clipPath id="beb1ec89e7"><path d="M 775.878906 626.003906 L 951.277344 696.566406 L 908.65625 802.507812 L 733.257812 731.945312 Z M 775.878906 626.003906 " clip-rule="nonzero"/></clipPath></defs><path fill="#ffffff" d="M 82.101562 901.753906 L 82.101562 646.050781 L 192.054688 646.050781 C 209.101562 646.050781 224.746094 649.953125 238.988281 657.742188 C 253.238281 665.535156 264.625 676.3125 273.144531 690.070312 C 281.671875 703.832031 285.9375 719.71875 285.9375 737.730469 C 285.9375 755.753906 281.671875 771.773438 273.144531 785.78125 C 264.625 799.785156 253.300781 810.683594 239.175781 818.472656 C 225.0625 826.269531 209.355469 830.164062 192.054688 830.164062 L 143.480469 830.164062 L 143.480469 901.753906 Z M 143.480469 778.644531 L 185.121094 778.644531 C 192.421875 778.644531 198.992188 777.066406 204.832031 773.902344 C 210.679688 770.730469 215.433594 766.105469 219.089844 760.023438 C 222.746094 753.933594 224.574219 746.628906 224.574219 738.109375 C 224.574219 729.582031 222.746094 722.273438 219.089844 716.191406 C 215.433594 710.101562 210.621094 705.414062 204.660156 702.125 C 198.691406 698.839844 192.179688 697.191406 185.121094 697.191406 L 143.480469 697.191406 Z M 143.480469 778.644531 " fill-opacity="1" fill-rule="nonzero"/><path fill="#ffffff" d="M 303.398438 892.382812 C 286.84375 892.382812 272.234375 888.121094 259.570312 879.605469 C 246.902344 871.078125 237.03125 859.574219 229.964844 845.085938 C 222.90625 830.59375 219.378906 814.214844 219.378906 795.945312 C 219.378906 776.945312 223.511719 759.957031 231.792969 744.980469 C 240.078125 730.003906 251.832031 718.132812 267.050781 709.375 C 282.269531 700.605469 300.230469 696.21875 320.933594 696.21875 C 341.875 696.21875 359.714844 700.542969 374.453125 709.183594 C 389.1875 717.832031 400.511719 729.640625 408.421875 744.617188 C 416.335938 759.597656 420.300781 776.339844 420.300781 794.84375 L 420.300781 888.003906 L 364.78125 888.003906 L 364.78125 858.050781 L 363.316406 858.050781 C 359.898438 864.628906 355.515625 870.539062 350.160156 875.777344 C 344.800781 881.007812 338.285156 885.085938 330.609375 888.003906 C 322.9375 890.921875 313.867188 892.382812 303.398438 892.382812 Z M 320.210938 843.433594 C 328.738281 843.433594 336.222656 841.304688 342.675781 837.050781 C 349.125 832.789062 354.054688 826.882812 357.46875 819.328125 C 360.878906 811.777344 362.589844 803.375 362.589844 794.121094 C 362.589844 785.109375 360.878906 776.953125 357.46875 769.652344 C 354.054688 762.339844 349.125 756.554688 342.675781 752.289062 C 336.222656 748.027344 328.738281 745.894531 320.210938 745.894531 C 311.4375 745.894531 303.765625 748.027344 297.191406 752.289062 C 290.613281 756.554688 285.621094 762.339844 282.207031 769.652344 C 278.804688 776.953125 277.105469 785.109375 277.105469 794.121094 C 277.105469 803.375 278.804688 811.777344 282.207031 819.328125 C 285.621094 826.882812 290.613281 832.789062 297.191406 837.050781 C 303.765625 841.304688 311.4375 843.433594 320.210938 843.433594 Z M 320.210938 843.433594 " fill-opacity="1" fill-rule="nonzero"/><path fill="#ffffff" d="M 396.339844 887.199219 L 396.339844 779.433594 C 396.339844 763.847656 400.109375 749.71875 407.652344 737.054688 C 415.203125 724.386719 425.980469 714.285156 439.980469 706.742188 C 453.992188 699.191406 470.617188 695.414062 489.863281 695.414062 C 509.34375 695.414062 525.964844 699.191406 539.726562 706.742188 C 553.484375 714.285156 564.011719 724.386719 571.3125 737.054688 C 578.625 749.71875 582.28125 763.847656 582.28125 779.433594 L 582.28125 887.199219 L 525.65625 887.199219 L 525.65625 780.898438 C 525.65625 774.324219 524.070312 768.296875 520.898438 762.8125 C 517.734375 757.328125 513.414062 752.945312 507.933594 749.65625 C 502.457031 746.371094 496.3125 744.726562 489.5 744.726562 C 482.429688 744.726562 476.15625 746.371094 470.671875 749.65625 C 465.195312 752.945312 460.875 757.328125 457.707031 762.8125 C 454.542969 768.296875 452.964844 774.324219 452.964844 780.898438 L 452.964844 887.199219 Z M 396.339844 887.199219 " fill-opacity="1" fill-rule="nonzero"/><path fill="#222222" d="M 647.585938 859.902344 C 630.289062 859.902344 614.574219 857.15625 600.433594 851.664062 C 585.945312 846.039062 573.726562 837.894531 563.777344 827.238281 C 554.007812 816.773438 546.492188 804.472656 541.226562 790.339844 C 536.027344 776.375 533.421875 761.265625 533.421875 745.007812 C 533.421875 723.691406 537.816406 704.953125 546.59375 688.785156 C 555.464844 672.453125 567.738281 659.625 583.414062 650.300781 C 599.089844 640.984375 616.949219 636.324219 636.996094 636.324219 C 645.847656 636.324219 654.242188 637.480469 662.191406 639.792969 C 670.304688 642.152344 677.710938 645.636719 684.402344 650.25 C 691.203125 654.933594 696.894531 660.484375 701.480469 666.902344 L 690.328125 674.863281 L 690.328125 661.164062 L 691.429688 661.164062 L 691.429688 674.863281 L 677.726562 674.863281 L 677.726562 561.433594 L 761.75 561.433594 L 761.75 744.640625 C 761.75 767.40625 757.0625 787.476562 747.6875 804.847656 C 738.132812 822.554688 724.695312 836.195312 707.371094 845.769531 C 690.328125 855.191406 670.402344 859.902344 647.585938 859.902344 Z M 647.585938 832.503906 C 665.6875 832.503906 681.199219 828.929688 694.113281 821.789062 C 706.746094 814.804688 716.566406 804.820312 723.578125 791.839844 C 730.761719 778.527344 734.351562 762.792969 734.351562 744.640625 L 734.351562 575.132812 L 748.050781 575.132812 L 748.050781 588.828125 L 691.429688 588.828125 L 691.429688 575.132812 L 705.128906 575.132812 L 705.128906 688.566406 L 683.28125 688.566406 L 679.183594 682.828125 C 676.460938 679.019531 673.019531 675.679688 668.859375 672.8125 C 664.59375 669.875 659.820312 667.636719 654.539062 666.101562 C 649.089844 664.515625 643.242188 663.722656 636.996094 663.722656 C 621.96875 663.722656 608.773438 667.101562 597.414062 673.855469 C 586.058594 680.605469 577.144531 689.945312 570.671875 701.863281 C 564.105469 713.949219 560.824219 728.332031 560.824219 745.007812 C 560.824219 757.972656 562.847656 769.898438 566.902344 780.777344 C 570.890625 791.484375 576.527344 800.742188 583.808594 808.542969 C 590.910156 816.148438 599.753906 822.011719 610.355469 826.125 C 621.300781 830.375 633.710938 832.503906 647.585938 832.503906 Z M 647.585938 783.546875 C 653.613281 783.546875 658.707031 782.175781 662.875 779.425781 C 667.148438 776.601562 670.445312 772.660156 672.765625 767.605469 C 675.34375 761.992188 676.632812 755.550781 676.632812 748.296875 C 676.632812 741.066406 675.355469 734.714844 672.800781 729.246094 C 670.484375 724.277344 667.175781 720.371094 662.875 717.53125 C 658.707031 714.78125 653.613281 713.40625 647.585938 713.40625 C 641.765625 713.40625 636.699219 714.800781 632.386719 717.59375 C 628.015625 720.433594 624.675781 724.3125 622.375 729.246094 C 619.824219 734.714844 618.546875 741.066406 618.546875 748.296875 C 618.546875 755.550781 619.835938 761.992188 622.410156 767.605469 C 624.714844 772.621094 628.039062 776.542969 632.386719 779.359375 C 636.699219 782.148438 641.765625 783.546875 647.585938 783.546875 Z M 647.585938 810.945312 C 636.363281 810.945312 626.328125 808.082031 617.488281 802.351562 C 608.683594 796.644531 602.023438 788.875 597.511719 779.035156 C 593.269531 769.792969 591.144531 759.546875 591.144531 748.296875 C 591.144531 737.011719 593.28125 726.804688 597.546875 717.660156 C 602.0625 707.976562 608.710938 700.292969 617.488281 694.605469 C 626.328125 688.875 636.363281 686.007812 647.585938 686.007812 C 659.101562 686.007812 669.226562 688.894531 677.96875 694.667969 C 686.578125 700.351562 693.128906 708.015625 697.632812 717.660156 C 701.898438 726.804688 704.027344 737.011719 704.027344 748.296875 C 704.027344 759.546875 701.910156 769.792969 697.667969 779.035156 C 693.167969 788.835938 686.605469 796.585938 677.96875 802.289062 C 669.226562 808.0625 659.101562 810.945312 647.585938 810.945312 Z M 647.585938 810.945312 " fill-opacity="1" fill-rule="nonzero"/><path fill="#ffffff" d="M 647.585938 846.199219 C 631.996094 846.199219 617.9375 843.765625 605.394531 838.902344 C 592.855469 834.03125 582.320312 827.03125 573.792969 817.902344 C 565.273438 808.765625 558.699219 797.984375 554.066406 785.558594 C 549.433594 773.132812 547.117188 759.617188 547.117188 745.003906 C 547.117188 726.015625 550.949219 709.457031 558.621094 695.328125 C 566.296875 681.203125 576.894531 670.121094 590.414062 662.085938 C 603.929688 654.042969 619.457031 650.019531 637 650.019531 C 644.539062 650.019531 651.660156 650.996094 658.363281 652.949219 C 665.0625 654.894531 671.148438 657.753906 676.625 661.535156 C 682.105469 665.308594 686.675781 669.75 690.328125 674.863281 L 691.433594 674.863281 L 691.433594 575.136719 L 748.054688 575.136719 L 748.054688 744.640625 C 748.054688 765.101562 743.914062 783.003906 735.625 798.351562 C 727.347656 813.6875 715.71875 825.496094 700.742188 833.78125 C 685.765625 842.058594 668.042969 846.199219 647.585938 846.199219 Z M 647.585938 797.246094 C 656.355469 797.246094 663.964844 795.117188 670.414062 790.851562 C 676.875 786.589844 681.804688 780.746094 685.210938 773.316406 C 688.621094 765.890625 690.328125 757.554688 690.328125 748.296875 C 690.328125 739.046875 688.621094 730.761719 685.210938 723.453125 C 681.804688 716.140625 676.875 710.359375 670.414062 706.105469 C 663.964844 701.84375 656.355469 699.707031 647.585938 699.707031 C 639.066406 699.707031 631.515625 701.84375 624.929688 706.105469 C 618.355469 710.359375 613.359375 716.140625 609.949219 723.453125 C 606.546875 730.761719 604.84375 739.046875 604.84375 748.296875 C 604.84375 757.554688 606.546875 765.890625 609.949219 773.316406 C 613.359375 780.746094 618.355469 786.589844 624.929688 790.851562 C 631.515625 795.117188 639.066406 797.246094 647.585938 797.246094 Z M 647.585938 797.246094 " fill-opacity="1" fill-rule="nonzero"/><path fill="#ffffff" d="M 761.210938 943.910156 C 744.644531 943.910156 730.03125 939.648438 717.363281 931.136719 C 704.695312 922.609375 694.824219 911.101562 687.757812 896.617188 C 680.703125 882.121094 677.171875 865.746094 677.171875 847.476562 C 677.171875 828.476562 681.308594 811.488281 689.585938 796.507812 C 697.875 781.535156 709.628906 769.660156 724.847656 760.886719 C 740.074219 752.121094 758.042969 747.730469 778.746094 747.730469 C 799.6875 747.730469 817.523438 752.0625 832.261719 760.714844 C 847 769.359375 858.320312 781.171875 866.230469 796.148438 C 874.148438 811.125 878.109375 827.871094 878.109375 846.375 L 878.109375 939.53125 L 822.574219 939.53125 L 822.574219 909.582031 L 821.109375 909.582031 C 817.707031 916.160156 813.324219 922.066406 807.96875 927.304688 C 802.613281 932.535156 796.09375 936.613281 788.417969 939.53125 C 780.75 942.449219 771.679688 943.910156 761.210938 943.910156 Z M 778.003906 894.960938 C 786.53125 894.960938 794.019531 892.832031 800.46875 888.566406 C 806.929688 884.304688 811.859375 878.398438 815.265625 870.855469 C 818.675781 863.304688 820.382812 854.90625 820.382812 845.648438 C 820.382812 836.636719 818.675781 828.476562 815.265625 821.164062 C 811.859375 813.855469 806.929688 808.074219 800.46875 803.820312 C 794.019531 799.558594 786.53125 797.421875 778.003906 797.421875 C 769.242188 797.421875 761.570312 799.558594 754.984375 803.820312 C 748.40625 808.074219 743.414062 813.855469 740.003906 821.164062 C 736.601562 828.476562 734.898438 836.636719 734.898438 845.648438 C 734.898438 854.90625 736.601562 863.304688 740.003906 870.855469 C 743.414062 878.398438 748.40625 884.304688 754.984375 888.566406 C 761.570312 892.832031 769.242188 894.960938 778.003906 894.960938 Z M 778.003906 894.960938 " fill-opacity="1" fill-rule="nonzero"/><path fill="#ffffff" d="M 1127.496094 830.707031 C 1123.449219 830.707031 1119.480469 830.015625 1115.585938 828.628906 C 1111.695312 827.234375 1108.15625 825.097656 1104.964844 822.214844 L 1111.882812 813.945312 C 1114.308594 815.921875 1116.796875 817.488281 1119.351562 818.65625 C 1121.902344 819.8125 1124.695312 820.390625 1127.730469 820.390625 C 1130.15625 820.390625 1132.035156 819.949219 1133.371094 819.066406 C 1134.714844 818.183594 1135.386719 816.960938 1135.386719 815.394531 L 1135.386719 815.238281 C 1135.386719 814.480469 1135.246094 813.816406 1134.964844 813.238281 C 1134.6875 812.648438 1134.160156 812.101562 1133.371094 811.597656 C 1132.59375 811.09375 1131.503906 810.589844 1130.109375 810.085938 C 1128.722656 809.574219 1126.917969 809.039062 1124.691406 808.476562 C 1122.011719 807.828125 1119.585938 807.101562 1117.414062 806.289062 C 1115.238281 805.480469 1113.386719 804.484375 1111.867188 803.296875 C 1110.355469 802.097656 1109.175781 800.617188 1108.335938 798.851562 C 1107.507812 797.078125 1107.09375 794.878906 1107.09375 792.25 L 1107.09375 792.09375 C 1107.09375 789.667969 1107.550781 787.484375 1108.464844 785.539062 C 1109.378906 783.585938 1110.652344 781.90625 1112.292969 780.496094 C 1113.929688 779.078125 1115.886719 777.992188 1118.167969 777.238281 C 1120.445312 776.472656 1122.949219 776.085938 1125.683594 776.085938 C 1129.578125 776.085938 1133.15625 776.667969 1136.414062 777.835938 C 1139.679688 779 1142.675781 780.671875 1145.410156 782.84375 L 1139.34375 791.636719 C 1136.957031 790.023438 1134.625 788.746094 1132.347656 787.808594 C 1130.078125 786.875 1127.800781 786.40625 1125.527344 786.40625 C 1123.257812 786.40625 1121.546875 786.855469 1120.40625 787.746094 C 1119.269531 788.628906 1118.703125 789.726562 1118.703125 791.039062 L 1118.703125 791.195312 C 1118.703125 792.046875 1118.867188 792.792969 1119.191406 793.433594 C 1119.515625 794.0625 1120.109375 794.628906 1120.972656 795.132812 C 1121.832031 795.636719 1123.007812 796.121094 1124.503906 796.582031 C 1125.992188 797.035156 1127.878906 797.566406 1130.15625 798.175781 C 1132.835938 798.878906 1135.222656 799.671875 1137.328125 800.554688 C 1139.425781 801.4375 1141.195312 802.5 1142.636719 803.734375 C 1144.074219 804.976562 1145.160156 806.429688 1145.898438 808.101562 C 1146.628906 809.769531 1147 811.769531 1147 814.101562 L 1147 814.246094 C 1147 816.882812 1146.515625 819.222656 1145.550781 821.269531 C 1144.59375 823.320312 1143.253906 825.042969 1141.53125 826.4375 C 1139.808594 827.824219 1137.757812 828.890625 1135.386719 829.621094 C 1133.011719 830.347656 1130.382812 830.707031 1127.496094 830.707031 Z M 1127.496094 830.707031 " fill-opacity="1" fill-rule="nonzero"/><path fill="#ffffff" d="M 1188.640625 787.617188 L 1172.492188 787.617188 L 1172.492188 776.84375 L 1216.480469 776.84375 L 1216.480469 787.617188 L 1200.328125 787.617188 L 1200.328125 829.953125 L 1188.640625 829.953125 Z M 1188.640625 787.617188 " fill-opacity="1" fill-rule="nonzero"/><path fill="#ffffff" d="M 1270.351562 830.867188 C 1266.257812 830.867188 1262.484375 830.144531 1259.039062 828.707031 C 1255.605469 827.257812 1252.632812 825.3125 1250.125 822.863281 C 1247.621094 820.40625 1245.671875 817.523438 1244.277344 814.214844 C 1242.890625 810.90625 1242.199219 807.351562 1242.199219 803.546875 L 1242.199219 803.40625 C 1242.199219 799.617188 1242.90625 796.0625 1244.324219 792.753906 C 1245.742188 789.4375 1247.699219 786.527344 1250.203125 784.027344 C 1252.710938 781.519531 1255.691406 779.542969 1259.152344 778.101562 C 1262.617188 776.664062 1266.398438 775.945312 1270.496094 775.945312 C 1274.589844 775.945312 1278.355469 776.664062 1281.789062 778.101562 C 1285.234375 779.542969 1288.207031 781.492188 1290.707031 783.949219 C 1293.214844 786.398438 1295.167969 789.28125 1296.554688 792.597656 C 1297.945312 795.90625 1298.648438 799.457031 1298.648438 803.246094 L 1298.648438 803.40625 C 1298.648438 807.199219 1297.9375 810.753906 1296.519531 814.070312 C 1295.101562 817.378906 1293.136719 820.285156 1290.628906 822.785156 C 1288.128906 825.285156 1285.144531 827.257812 1281.679688 828.707031 C 1278.222656 830.144531 1274.449219 830.867188 1270.351562 830.867188 Z M 1270.496094 820.089844 C 1272.824219 820.089844 1274.972656 819.660156 1276.9375 818.796875 C 1278.910156 817.9375 1280.59375 816.75 1281.980469 815.238281 C 1283.375 813.71875 1284.460938 811.957031 1285.242188 809.960938 C 1286.027344 807.964844 1286.421875 805.828125 1286.421875 803.546875 L 1286.421875 803.40625 C 1286.421875 801.128906 1286.027344 798.976562 1285.242188 796.960938 C 1284.460938 794.9375 1283.355469 793.164062 1281.917969 791.652344 C 1280.476562 790.132812 1278.769531 788.925781 1276.796875 788.042969 C 1274.820312 787.152344 1272.671875 786.707031 1270.351562 786.707031 C 1267.964844 786.707031 1265.804688 787.136719 1263.863281 787.996094 C 1261.914062 788.859375 1260.246094 790.054688 1258.851562 791.574219 C 1257.464844 793.085938 1256.378906 794.84375 1255.589844 796.835938 C 1254.800781 798.832031 1254.410156 800.972656 1254.410156 803.246094 L 1254.410156 803.40625 C 1254.410156 805.675781 1254.800781 807.824219 1255.589844 809.847656 C 1256.378906 811.878906 1257.488281 813.652344 1258.929688 815.175781 C 1260.367188 816.6875 1262.058594 817.882812 1264.003906 818.765625 C 1265.957031 819.648438 1268.121094 820.089844 1270.496094 820.089844 Z M 1270.496094 820.089844 " fill-opacity="1" fill-rule="nonzero"/><path fill="#ffffff" d="M 1328.140625 776.84375 L 1352.417969 776.84375 C 1359.152344 776.84375 1364.3125 778.636719 1367.90625 782.230469 C 1370.929688 785.265625 1372.445312 789.316406 1372.445312 794.378906 L 1372.445312 794.519531 C 1372.445312 798.828125 1371.390625 802.335938 1369.292969 805.042969 C 1367.203125 807.746094 1364.460938 809.722656 1361.070312 810.984375 L 1374.050781 829.953125 L 1360.390625 829.953125 L 1349.015625 812.953125 L 1339.832031 812.953125 L 1339.832031 829.953125 L 1328.140625 829.953125 Z M 1351.664062 802.648438 C 1354.550781 802.648438 1356.761719 801.96875 1358.296875 800.601562 C 1359.839844 799.238281 1360.613281 797.414062 1360.613281 795.132812 L 1360.613281 794.976562 C 1360.613281 792.457031 1359.800781 790.566406 1358.1875 789.304688 C 1356.566406 788.035156 1354.316406 787.398438 1351.441406 787.398438 L 1339.832031 787.398438 L 1339.832031 802.648438 Z M 1351.664062 802.648438 " fill-opacity="1" fill-rule="nonzero"/><path fill="#ffffff" d="M 1402.101562 776.84375 L 1442.167969 776.84375 L 1442.167969 787.242188 L 1413.714844 787.242188 L 1413.714844 798.015625 L 1438.75 798.015625 L 1438.75 808.414062 L 1413.714844 808.414062 L 1413.714844 819.554688 L 1442.546875 819.554688 L 1442.546875 829.953125 L 1402.101562 829.953125 Z M 1402.101562 776.84375 " fill-opacity="1" fill-rule="nonzero"/><path fill="#ffffff" d="M 939.972656 943.910156 C 930.238281 943.910156 921.894531 940.445312 914.953125 933.515625 C 908.011719 926.574219 904.539062 918.351562 904.539062 908.839844 C 904.539062 899.105469 908.011719 890.765625 914.953125 883.824219 C 921.894531 876.882812 930.238281 873.410156 939.972656 873.410156 C 949.476562 873.410156 957.695312 876.882812 964.628906 883.824219 C 971.570312 890.765625 975.042969 899.105469 975.042969 908.839844 C 975.042969 915.175781 973.457031 921.019531 970.285156 926.375 C 967.121094 931.734375 962.921875 936 957.679688 939.167969 C 952.449219 942.328125 946.546875 943.910156 939.972656 943.910156 Z M 939.972656 943.910156 " fill-opacity="1" fill-rule="nonzero"/><path stroke-linecap="round" transform="matrix(0, 0.756234, -0.756234, 0, 1043.179047, 563.432739)" fill="none" stroke-linejoin="miter" d="M 11.003425 11.001449 L 509.655325 11.001449 " stroke="#242424" stroke-width="22" stroke-opacity="1" stroke-miterlimit="4"/><g clip-path="url(#4931b72985)"><g clip-path="url(#fdc2f5b366)"><g clip-path="url(#071e3065ff)"><g clip-path="url(#cab4d01fa8)"><path fill="#39b54a" d="M 816.953125 758.71875 C 816.664062 747.921875 817.933594 727.648438 831.441406 710.882812 C 853.609375 683.382812 900.140625 675.992188 944.085938 697.050781 C 934.691406 737.703125 905.515625 767.585938 871.265625 772.378906 C 848.195312 775.609375 829.285156 766.542969 820.609375 761.558594 C 832.894531 758.207031 847.152344 753.289062 862.382812 745.925781 C 885.898438 734.566406 903.933594 721.160156 916.84375 709.867188 C 900.6875 720.148438 881.980469 730.742188 860.710938 740.703125 C 845.363281 747.890625 830.679688 753.816406 816.953125 758.71875 Z M 816.953125 758.71875 " fill-opacity="1" fill-rule="nonzero"/></g></g></g></g><g clip-path="url(#55fa0993b0)"><g clip-path="url(#c1a8bc4bfb)"><g clip-path="url(#d897059212)"><g clip-path="url(#beb1ec89e7)"><path fill="#39b54a" d="M 804.523438 754.878906 C 796.628906 754.175781 781.953125 751.527344 770.878906 740.242188 C 752.722656 721.734375 751.308594 687.148438 770.421875 656.871094 C 799.261719 667.179688 818.5625 691.007812 819.128906 716.410156 C 819.511719 733.519531 811.289062 746.542969 806.910156 752.453125 C 805.515625 743.203125 803.144531 732.386719 799.082031 720.640625 C 792.800781 702.519531 784.570312 688.214844 777.441406 677.835938 C 783.554688 690.5 789.683594 705.054688 795.128906 721.417969 C 799.0625 733.226562 802.125 744.449219 804.523438 754.878906 Z M 804.523438 754.878906 " fill-opacity="1" fill-rule="nonzero"/></g></g></g></g><path stroke-linecap="round" transform="matrix(0, -0.75, 0.75, 0, 1024.634945, 957.503682)" fill="none" stroke-linejoin="miter" d="M 12.999701 13.002366 L 512.963286 13.002366 " stroke="#ffffff" stroke-width="26" stroke-opacity="1" stroke-miterlimit="4"/></svg>