<svg xmlns="http://www.w3.org/2000/svg" xmlns:xlink="http://www.w3.org/1999/xlink" width="2000" zoomAndPan="magnify" viewBox="0 0 1500 1499.999933" height="2000" preserveAspectRatio="xMidYMid meet" version="1.0"><defs><clipPath id="0ac06fcf23"><path d="M 1188 675.964844 L 1371 675.964844 L 1371 803 L 1188 803 Z M 1188 675.964844 " clip-rule="nonzero"/></clipPath><clipPath id="a97874f211"><path d="M 1129.867188 591.574219 L 1381.25 692.703125 L 1320.164062 844.535156 L 1068.78125 743.40625 Z M 1129.867188 591.574219 " clip-rule="nonzero"/></clipPath><clipPath id="195001d17b"><path d="M 1129.867188 591.574219 L 1381.25 692.703125 L 1320.164062 844.535156 L 1068.78125 743.40625 Z M 1129.867188 591.574219 " clip-rule="nonzero"/></clipPath><clipPath id="661dbb963c"><path d="M 1129.867188 591.574219 L 1381.25 692.703125 L 1320.164062 844.535156 L 1068.78125 743.40625 Z M 1129.867188 591.574219 " clip-rule="nonzero"/></clipPath><clipPath id="50c161b0ba"><path d="M 1102 635.5 L 1192 635.5 L 1192 777 L 1102 777 Z M 1102 635.5 " clip-rule="nonzero"/></clipPath><clipPath id="db2d734344"><path d="M 1129.867188 591.574219 L 1381.25 692.703125 L 1320.164062 844.535156 L 1068.78125 743.40625 Z M 1129.867188 591.574219 " clip-rule="nonzero"/></clipPath><clipPath id="2c9fb01edd"><path d="M 1129.867188 591.574219 L 1381.25 692.703125 L 1320.164062 844.535156 L 1068.78125 743.40625 Z M 1129.867188 591.574219 " clip-rule="nonzero"/></clipPath><clipPath id="d38dd207e7"><path d="M 1129.867188 591.574219 L 1381.25 692.703125 L 1320.164062 844.535156 L 1068.78125 743.40625 Z M 1129.867188 591.574219 " clip-rule="nonzero"/></clipPath></defs><path fill="#ffffff" d="M 135.542969 986.777344 L 135.542969 620.304688 L 293.128906 620.304688 C 317.5625 620.304688 339.984375 625.894531 360.394531 637.058594 C 380.820312 648.230469 397.136719 663.675781 409.347656 683.394531 C 421.570312 703.117188 427.683594 725.882812 427.683594 751.695312 C 427.683594 777.527344 421.570312 800.488281 409.347656 820.566406 C 397.136719 840.632812 380.910156 856.253906 360.664062 867.417969 C 340.433594 878.589844 317.921875 884.171875 293.128906 884.171875 L 223.515625 884.171875 L 223.515625 986.777344 Z M 223.515625 810.335938 L 283.195312 810.335938 C 293.652344 810.335938 303.070312 808.074219 311.441406 803.539062 C 319.824219 798.996094 326.636719 792.363281 331.875 783.648438 C 337.113281 774.921875 339.734375 764.449219 339.734375 752.238281 C 339.734375 740.019531 337.113281 729.546875 331.875 720.832031 C 326.636719 712.101562 319.738281 705.378906 311.191406 700.667969 C 302.640625 695.957031 293.308594 693.597656 283.195312 693.597656 L 223.515625 693.597656 Z M 223.515625 810.335938 " fill-opacity="1" fill-rule="nonzero"/><path fill="#ffffff" d="M 452.707031 973.347656 C 428.980469 973.347656 408.046875 967.238281 389.890625 955.035156 C 371.738281 942.8125 357.589844 926.324219 347.464844 905.5625 C 337.347656 884.789062 332.289062 861.316406 332.289062 835.132812 C 332.289062 807.902344 338.214844 783.554688 350.082031 762.089844 C 361.960938 740.625 378.804688 723.613281 400.617188 711.058594 C 422.429688 698.492188 448.167969 692.203125 477.839844 692.203125 C 507.855469 692.203125 533.421875 698.402344 554.542969 710.785156 C 575.660156 723.175781 591.890625 740.105469 603.226562 761.570312 C 614.574219 783.035156 620.25 807.035156 620.25 833.554688 L 620.25 967.070312 L 540.679688 967.070312 L 540.679688 924.144531 L 538.578125 924.144531 C 533.683594 933.570312 527.402344 942.039062 519.726562 949.546875 C 512.046875 957.042969 502.707031 962.886719 491.703125 967.070312 C 480.714844 971.253906 467.710938 973.347656 452.707031 973.347656 Z M 476.800781 903.191406 C 489.023438 903.191406 499.753906 900.140625 509 894.046875 C 518.242188 887.9375 525.308594 879.46875 530.203125 868.644531 C 535.089844 857.820312 537.539062 845.78125 537.539062 832.515625 C 537.539062 819.597656 535.089844 807.914062 530.203125 797.449219 C 525.308594 786.972656 518.242188 778.679688 509 772.566406 C 499.753906 766.457031 489.023438 763.398438 476.800781 763.398438 C 464.230469 763.398438 453.234375 766.457031 443.8125 772.566406 C 434.382812 778.679688 427.226562 786.972656 422.339844 797.449219 C 417.460938 807.914062 415.023438 819.597656 415.023438 832.515625 C 415.023438 845.78125 417.460938 857.820312 422.339844 868.644531 C 427.226562 879.46875 434.382812 887.9375 443.8125 894.046875 C 453.234375 900.140625 464.230469 903.191406 476.800781 903.191406 Z M 476.800781 903.191406 " fill-opacity="1" fill-rule="nonzero"/><path fill="#ffffff" d="M 585.914062 965.914062 L 585.914062 811.46875 C 585.914062 789.132812 591.316406 768.882812 602.125 750.726562 C 612.945312 732.574219 628.390625 718.09375 648.457031 707.285156 C 668.539062 696.460938 692.367188 691.050781 719.945312 691.050781 C 747.867188 691.050781 771.6875 696.460938 791.414062 707.285156 C 811.128906 718.09375 826.21875 732.574219 836.683594 750.726562 C 847.164062 768.882812 852.402344 789.132812 852.402344 811.46875 L 852.402344 965.914062 L 771.25 965.914062 L 771.25 813.566406 C 771.25 804.148438 768.972656 795.503906 764.429688 787.644531 C 759.898438 779.789062 753.703125 773.503906 745.847656 768.792969 C 738 764.085938 729.195312 761.722656 719.425781 761.722656 C 709.292969 761.722656 700.300781 764.085938 692.445312 768.792969 C 684.597656 773.503906 678.40625 779.789062 673.859375 787.644531 C 669.328125 795.503906 667.066406 804.148438 667.066406 813.566406 L 667.066406 965.914062 Z M 585.914062 965.914062 " fill-opacity="1" fill-rule="nonzero"/><path fill="#242424" d="M 946 926.792969 C 921.207031 926.792969 898.683594 922.859375 878.417969 914.988281 C 857.65625 906.929688 840.144531 895.253906 825.886719 879.980469 C 811.878906 864.980469 801.109375 847.351562 793.5625 827.097656 C 786.109375 807.085938 782.378906 785.429688 782.378906 762.128906 C 782.378906 731.578125 788.675781 704.71875 801.257812 681.550781 C 813.96875 658.144531 831.558594 639.757812 854.027344 626.394531 C 876.492188 613.039062 902.085938 606.359375 930.820312 606.359375 C 943.503906 606.359375 955.539062 608.019531 966.929688 611.335938 C 978.558594 614.714844 989.171875 619.710938 998.761719 626.320312 C 1008.511719 633.035156 1016.667969 640.988281 1023.242188 650.1875 L 1007.257812 661.597656 L 1007.257812 641.964844 L 1008.835938 641.964844 L 1008.835938 661.597656 L 989.195312 661.597656 L 989.195312 499.027344 L 1109.621094 499.027344 L 1109.621094 761.605469 C 1109.621094 794.230469 1102.902344 822.992188 1089.460938 847.894531 C 1075.773438 873.265625 1056.511719 892.816406 1031.683594 906.539062 C 1007.257812 920.042969 978.703125 926.792969 946 926.792969 Z M 946 887.527344 C 971.945312 887.527344 994.175781 882.40625 1012.683594 872.171875 C 1030.789062 862.164062 1044.859375 847.855469 1054.910156 829.246094 C 1065.207031 810.167969 1070.351562 787.617188 1070.351562 761.605469 L 1070.351562 518.660156 L 1089.988281 518.660156 L 1089.988281 538.292969 L 1008.835938 538.292969 L 1008.835938 518.660156 L 1028.46875 518.660156 L 1028.46875 681.234375 L 997.15625 681.234375 L 991.285156 673.011719 C 987.382812 667.554688 982.449219 662.765625 976.488281 658.65625 C 970.375 654.445312 963.535156 651.238281 955.964844 649.039062 C 948.15625 646.769531 939.773438 645.628906 930.820312 645.628906 C 909.285156 645.628906 890.375 650.472656 874.09375 660.152344 C 857.820312 669.828125 845.039062 683.210938 835.765625 700.292969 C 826.355469 717.613281 821.652344 738.226562 821.652344 762.128906 C 821.652344 780.710938 824.554688 797.800781 830.363281 813.390625 C 836.082031 828.738281 844.160156 842.003906 854.589844 853.1875 C 864.769531 864.089844 877.445312 872.488281 892.636719 878.386719 C 908.324219 884.476562 926.113281 887.527344 946 887.527344 Z M 946 817.363281 C 954.636719 817.363281 961.9375 815.394531 967.90625 811.453125 C 974.03125 807.40625 978.757812 801.761719 982.089844 794.515625 C 985.78125 786.46875 987.625 777.242188 987.625 766.84375 C 987.625 756.476562 985.796875 747.378906 982.140625 739.539062 C 978.8125 732.417969 974.074219 726.820312 967.90625 722.75 C 961.9375 718.808594 954.636719 716.839844 946 716.839844 C 937.65625 716.839844 930.398438 718.835938 924.214844 722.839844 C 917.949219 726.910156 913.164062 732.46875 909.867188 739.539062 C 906.207031 747.378906 904.378906 756.476562 904.378906 766.84375 C 904.378906 777.242188 906.226562 786.46875 909.917969 794.515625 C 913.21875 801.707031 917.984375 807.324219 924.214844 811.359375 C 930.398438 815.359375 937.65625 817.363281 946 817.363281 Z M 946 856.632812 C 929.910156 856.632812 915.535156 852.527344 902.859375 844.3125 C 890.246094 836.136719 880.699219 824.996094 874.230469 810.894531 C 868.148438 797.652344 865.105469 782.964844 865.105469 766.84375 C 865.105469 750.667969 868.167969 736.039062 874.28125 722.9375 C 880.753906 709.054688 890.285156 698.042969 902.859375 689.890625 C 915.535156 681.675781 929.910156 677.566406 946 677.566406 C 962.5 677.566406 977.011719 681.703125 989.546875 689.980469 C 1001.878906 698.125 1011.273438 709.109375 1017.726562 722.9375 C 1023.839844 736.039062 1026.894531 750.667969 1026.894531 766.84375 C 1026.894531 782.964844 1023.855469 797.652344 1017.777344 810.894531 C 1011.328125 824.941406 1001.917969 836.050781 989.546875 844.222656 C 977.011719 852.5 962.5 856.632812 946 856.632812 Z M 946 856.632812 " fill-opacity="1" fill-rule="nonzero"/><path fill="#ffffff" d="M 946 907.15625 C 923.65625 907.15625 903.503906 903.664062 885.53125 896.699219 C 867.558594 889.71875 852.457031 879.6875 840.234375 866.601562 C 828.023438 853.503906 818.605469 838.054688 811.964844 820.246094 C 805.328125 802.441406 802.007812 783.066406 802.007812 762.125 C 802.007812 734.910156 807.5 711.175781 818.492188 690.929688 C 829.492188 670.6875 844.683594 654.800781 864.058594 643.285156 C 883.429688 631.757812 905.683594 625.988281 930.828125 625.988281 C 941.628906 625.988281 951.835938 627.390625 961.445312 630.1875 C 971.046875 632.976562 979.769531 637.074219 987.613281 642.496094 C 995.472656 647.902344 1002.019531 654.269531 1007.257812 661.597656 L 1008.839844 661.597656 L 1008.839844 518.667969 L 1089.992188 518.667969 L 1089.992188 761.605469 C 1089.992188 790.929688 1084.054688 816.585938 1072.175781 838.578125 C 1060.3125 860.5625 1043.648438 877.484375 1022.183594 889.363281 C 1000.71875 901.222656 975.320312 907.15625 946 907.15625 Z M 946 837 C 958.566406 837 969.472656 833.945312 978.71875 827.832031 C 987.976562 821.722656 995.042969 813.347656 999.921875 802.699219 C 1004.808594 792.058594 1007.257812 780.109375 1007.257812 766.84375 C 1007.257812 753.582031 1004.808594 741.710938 999.921875 731.234375 C 995.042969 720.757812 987.976562 712.46875 978.71875 706.375 C 969.472656 700.265625 958.566406 697.207031 946 697.207031 C 933.789062 697.207031 922.96875 700.265625 913.53125 706.375 C 904.101562 712.46875 896.945312 720.757812 892.054688 731.234375 C 887.179688 741.710938 884.742188 753.582031 884.742188 766.84375 C 884.742188 780.109375 887.179688 792.058594 892.054688 802.699219 C 896.945312 813.347656 904.101562 821.722656 913.53125 827.832031 C 922.96875 833.945312 933.789062 837 946 837 Z M 946 837 " fill-opacity="1" fill-rule="nonzero"/><path fill="#ffffff" d="M 1108.84375 1047.199219 C 1085.101562 1047.199219 1064.15625 1041.089844 1046.003906 1028.886719 C 1027.847656 1016.664062 1013.703125 1000.175781 1003.574219 979.414062 C 993.460938 958.640625 988.402344 935.167969 988.402344 908.988281 C 988.402344 881.753906 994.328125 857.410156 1006.195312 835.941406 C 1018.070312 814.476562 1034.917969 797.457031 1056.730469 784.886719 C 1078.550781 772.320312 1104.304688 766.03125 1133.976562 766.03125 C 1163.988281 766.03125 1189.554688 772.238281 1210.679688 784.640625 C 1231.796875 797.03125 1248.027344 813.960938 1259.363281 835.421875 C 1270.707031 856.890625 1276.386719 880.886719 1276.386719 907.40625 L 1276.386719 1040.921875 L 1196.792969 1040.921875 L 1196.792969 997.996094 L 1194.691406 997.996094 C 1189.816406 1007.425781 1183.539062 1015.890625 1175.859375 1023.398438 C 1168.183594 1030.894531 1158.839844 1036.738281 1147.839844 1040.921875 C 1136.847656 1045.105469 1123.847656 1047.199219 1108.84375 1047.199219 Z M 1132.914062 977.042969 C 1145.136719 977.042969 1155.867188 973.988281 1165.113281 967.875 C 1174.371094 961.765625 1181.4375 953.304688 1186.316406 942.496094 C 1191.203125 931.675781 1193.652344 919.632812 1193.652344 906.367188 C 1193.652344 893.453125 1191.203125 881.753906 1186.316406 871.277344 C 1181.4375 860.800781 1174.371094 852.515625 1165.113281 846.417969 C 1155.867188 840.308594 1145.136719 837.25 1132.914062 837.25 C 1120.359375 837.25 1109.363281 840.308594 1099.925781 846.417969 C 1090.496094 852.515625 1083.339844 860.800781 1078.449219 871.277344 C 1073.574219 881.753906 1071.136719 893.453125 1071.136719 906.367188 C 1071.136719 919.632812 1073.574219 931.675781 1078.449219 942.496094 C 1083.339844 953.304688 1090.496094 961.765625 1099.925781 967.875 C 1109.363281 973.988281 1120.359375 977.042969 1132.914062 977.042969 Z M 1132.914062 977.042969 " fill-opacity="1" fill-rule="nonzero"/><path fill="#ffffff" d="M 1365.046875 1047.199219 C 1351.09375 1047.199219 1339.136719 1042.230469 1329.191406 1032.296875 C 1319.238281 1022.347656 1314.265625 1010.5625 1314.265625 996.9375 C 1314.265625 982.980469 1319.238281 971.03125 1329.191406 961.078125 C 1339.136719 951.132812 1351.09375 946.152344 1365.046875 946.152344 C 1378.667969 946.152344 1390.449219 951.132812 1400.386719 961.078125 C 1410.332031 971.03125 1415.3125 982.980469 1415.3125 996.9375 C 1415.3125 1006.011719 1413.035156 1014.390625 1408.492188 1022.066406 C 1403.960938 1029.746094 1397.9375 1035.859375 1390.429688 1040.402344 C 1382.933594 1044.929688 1374.46875 1047.199219 1365.046875 1047.199219 Z M 1365.046875 1047.199219 " fill-opacity="1" fill-rule="nonzero"/><g clip-path="url(#0ac06fcf23)"><g clip-path="url(#a97874f211)"><g clip-path="url(#195001d17b)"><g clip-path="url(#661dbb963c)"><path fill="#39b54a" d="M 1188.738281 781.78125 C 1188.320312 766.308594 1190.136719 737.246094 1209.5 713.222656 C 1241.269531 673.808594 1307.960938 663.210938 1370.941406 693.398438 C 1357.480469 751.660156 1315.667969 794.488281 1266.578125 801.355469 C 1233.515625 805.984375 1206.414062 792.992188 1193.976562 785.851562 C 1211.582031 781.046875 1232.019531 773.996094 1253.847656 763.445312 C 1287.546875 747.164062 1313.398438 727.949219 1331.902344 711.765625 C 1308.746094 726.5 1281.933594 741.683594 1251.449219 755.960938 C 1229.457031 766.261719 1208.410156 774.753906 1188.738281 781.78125 Z M 1188.738281 781.78125 " fill-opacity="1" fill-rule="nonzero"/></g></g></g></g><g clip-path="url(#50c161b0ba)"><g clip-path="url(#db2d734344)"><g clip-path="url(#2c9fb01edd)"><g clip-path="url(#d38dd207e7)"><path fill="#39b54a" d="M 1170.921875 776.277344 C 1159.605469 775.265625 1138.570312 771.472656 1122.703125 755.300781 C 1096.679688 728.773438 1094.652344 679.207031 1122.046875 635.8125 C 1163.382812 650.585938 1191.042969 684.738281 1191.855469 721.140625 C 1192.402344 745.664062 1180.617188 764.332031 1174.34375 772.800781 C 1172.34375 759.542969 1168.949219 744.039062 1163.121094 727.203125 C 1154.125 701.230469 1142.324219 680.734375 1132.109375 665.859375 C 1140.871094 684.007812 1149.652344 704.867188 1157.460938 728.320312 C 1163.09375 745.246094 1167.484375 761.328125 1170.921875 776.277344 Z M 1170.921875 776.277344 " fill-opacity="1" fill-rule="nonzero"/></g></g></g></g></svg>